<svg width="65" height="81" viewBox="0 0 65 81" fill="none" xmlns="http://www.w3.org/2000/svg">
<path fill-rule="evenodd" clip-rule="evenodd" d="M0 19.6259V58.4759C0 61.0658 1.42882 63.5664 3.66171 64.8168L28.4006 79.1065C29.5169 79.7762 30.7896 80.1112 32.0623 80.1112C33.335 80.1112 34.6076 79.7762 35.724 79.1065L60.4629 64.8168C62.6958 63.4773 64.1246 61.0658 64.1246 58.4759V19.6259C64.1246 18.7329 63.6781 17.9291 63.053 17.5717L58.6769 15.0712C58.3194 14.8032 57.873 14.7139 57.4265 14.7139C56.0867 14.7139 54.9259 15.8749 54.9259 17.2146V25.5204L51.9784 23.8236V12.6597C51.9784 11.7666 51.532 10.9628 50.7282 10.5164L45.7268 7.56922C45.3695 7.30123 44.923 7.21181 44.4764 7.21181C43.0476 7.21181 41.9758 8.28349 42.0651 9.62315V17.9291L38.9391 16.1429V4.97905C38.9391 4.08594 38.4927 3.28212 37.6888 2.8357L33.4021 0.334949C33.0001 0.11174 32.5759 0 32.1518 0C31.7274 0 31.3032 0.111739 30.9014 0.334949L26.6144 2.8357C25.8106 3.28212 25.364 4.08594 25.364 4.97905V16.2322L22.2383 18.0184V9.71256C22.2383 9.26601 22.0596 8.81946 21.8809 8.46219C21.1666 7.30123 19.6483 6.85468 18.4873 7.56922L13.4859 10.5164C12.6821 10.9628 12.2356 11.7666 12.2356 12.6597V23.7342L9.2884 25.4312V17.1253C9.2884 16.6787 9.10956 16.2322 8.93099 15.8749C8.21659 14.7139 6.69823 14.2674 5.53727 14.9818L1.25043 17.4825C0.446606 17.9291 5.31864e-05 18.7329 5.31864e-05 19.6259L0 19.6259ZM22.4168 20.6084L26.7036 17.9291C27.2395 17.6612 27.5968 17.1253 27.5968 16.5001V4.97904C27.5968 4.97904 27.5968 4.88989 27.6862 4.88989L32.0623 2.38914H32.1517V23.1091C36.7957 23.1091 40.5467 26.8601 40.5467 31.5042V37.5772H46.6197C51.2641 37.5772 55.0151 41.3285 55.0151 45.9724C55.0151 50.6165 51.2641 54.3677 46.6197 54.3677H41.5292C40.9039 54.3677 40.4574 54.9035 40.4574 55.4393V60.4409C40.4574 65.0848 36.7064 68.8358 32.0623 68.8358V77.7669C31.1692 77.7669 30.3654 77.5883 29.5615 77.0523L4.82262 62.7628C3.30439 61.8697 2.322 60.2622 2.322 58.476V19.6259C2.322 19.6259 2.322 19.5368 2.41128 19.5368L6.69812 17.036H6.78741C6.87669 17.036 6.87669 17.1253 6.87669 17.1253V26.5029C6.87669 26.7708 6.87669 27.0388 7.05539 27.3066C7.50195 28.1999 8.57362 28.4677 9.37731 28.0212L13.575 25.6991C14.1108 25.3418 14.4681 24.806 14.4681 24.1808V12.6598L14.5574 12.5705L19.5589 9.62319H19.7375C19.8267 9.62319 19.8267 9.62319 19.8267 9.71261V19.1794C19.8267 19.4474 19.916 19.7154 20.0947 19.9832C20.3957 20.5252 20.9809 20.8235 21.5767 20.8235C21.8644 20.8235 22.1549 20.7538 22.4168 20.6085L22.4168 20.6084ZM23.7563 31.5041V36.5056C23.7563 37.0415 23.3099 37.5772 22.6847 37.5772H17.594C12.95 37.7559 9.28833 41.5963 9.4669 46.2404C9.64533 50.7059 13.1285 54.1889 17.594 54.3676H23.6672V60.4408C23.6672 65.0848 27.4182 68.8358 32.0623 68.8358V66.5139C28.7577 66.5139 25.9891 63.8344 25.9891 60.4408V54.3676C28.1327 54.2782 30.1869 53.6531 32.0623 52.7601V50.0808C30.2761 51.2418 28.1327 51.867 25.9891 52.0456C26.2571 47.848 28.4899 44.097 32.0623 41.8643V39.1851C30.6333 39.8994 29.2937 40.8819 28.1327 42.0427C25.4534 44.722 23.8458 48.2946 23.6672 52.0456H17.594C14.2001 52.0456 11.521 49.3664 11.521 45.9724C11.521 42.668 14.2002 39.8994 17.594 39.9886H22.6847C24.5602 39.9886 26.0785 38.4704 26.0785 36.5949V31.5041C26.0785 28.2287 28.7109 25.4799 32.0623 25.4318V25.4312C32.0771 25.4312 32.092 25.4312 32.1067 25.4314C32.1216 25.4312 32.1366 25.4312 32.1517 25.4312V23.109C27.5073 23.109 23.7563 26.86 23.7563 31.5041L23.7563 31.5041ZM32.0623 25.4318V39.1849C33.9378 38.2918 35.9918 37.6668 38.1353 37.5772V31.5042C38.1353 28.1255 35.3917 25.4551 32.1067 25.4314C32.0919 25.4315 32.0772 25.4317 32.0623 25.4318V25.4318ZM40.4574 39.8993C40.2788 43.6503 38.6712 47.2228 35.9918 49.9021C34.8309 51.0631 33.4912 51.9563 32.0623 52.7601V66.5136C35.456 66.5136 38.1353 63.8344 38.1353 60.5301V55.4393C38.1353 53.564 39.6536 52.0456 41.5292 52.0456H46.6197C50.0137 52.0456 52.6929 49.3664 52.6929 45.9724C52.6929 42.5787 50.0137 39.8994 46.6197 39.8994H40.4574V39.8993ZM32.0623 41.9534V50.0808C32.8661 49.5448 33.6698 49.009 34.3843 48.2946C36.6172 46.0617 37.9568 43.1145 38.1353 39.9886C35.9918 40.078 33.9378 40.7924 32.0623 41.9534H32.0623Z" fill="url(#paint0_linear_109_52)"/>
<defs>
<linearGradient id="paint0_linear_109_52" x1="66.6788" y1="74.6722" x2="-2.55426" y2="5.43901" gradientUnits="userSpaceOnUse">
<stop stop-color="#737FE6"/>
<stop offset="1" stop-color="#DD7C7C"/>
</linearGradient>
</defs>
</svg>
