<svg width="60" height="60" viewBox="0 0 60 60" fill="none" xmlns="http://www.w3.org/2000/svg">
<g filter="url(#filter0_d_370_3)">
<rect x="4" width="52" height="52" rx="5" fill="#737FE6"/>
</g>
<path fill-rule="evenodd" clip-rule="evenodd" d="M21 28.9212C21 30.4429 21.9805 30.9764 23.1232 31.5481C24.6135 32.2938 24.8318 32.2975 26.4994 32.8022C26.3989 32.9523 25.3794 33.9431 25.1641 34.1587C24.6995 34.6238 24.2637 35.0597 23.7991 35.5248C23.341 35.9833 22.9119 36.4129 22.4539 36.8714L21.5539 38.7031C21.5539 39.0338 21.6367 39.3823 21.7393 39.6263C21.92 40.055 22.3937 40.6054 22.819 40.7633C23.0733 40.8578 23.6437 41 23.9277 41C24.3355 41 24.6715 40.8652 24.9488 40.7153C25.4266 40.4568 27.783 37.9925 28.3291 37.4456L29.6644 36.0892C30.0538 36.3504 33.9775 40.5285 34.3884 40.7068C34.5491 40.7765 35.3759 41 35.5594 41C37.2098 41 38.2972 39.2087 37.5778 37.7519C37.3701 37.331 37.1165 37.0761 36.7884 36.7599L32.8692 32.8022C32.8888 32.7929 34.1622 32.4431 34.6267 32.2647C34.9316 32.1476 35.167 32.0526 35.4419 31.932C35.9771 31.6974 36.485 31.4345 36.9815 31.1366C37.2011 31.0051 37.4906 30.829 37.6847 30.6525C37.7977 30.5499 38.1067 30.1268 38.1546 29.9745L38.3684 29.0004C38.3684 28.3722 38.0598 27.7735 37.7463 27.4449L36.2716 26.7429C35.9498 26.6703 35.2393 26.8369 34.8707 27.0831C34.1079 27.5927 32.629 28.211 31.7519 28.3573C29.7733 28.6872 27.99 28.6612 26.1262 27.9085C25.6497 27.7162 25.2349 27.5298 24.8147 27.2808L23.4134 26.7429C22.8211 26.6332 22.0486 27.0161 21.662 27.4055C21.3475 27.7222 21 28.306 21 28.9212ZM26.4994 18.8621C26.4994 17.9197 26.773 17.1955 27.3791 16.5348C27.575 16.3212 28.0216 15.9886 28.2794 15.8917L29.5061 15.5751C30.1946 15.4876 31.0386 15.7856 31.5587 16.1738C31.9599 16.4735 32.4408 16.998 32.5935 17.4748L32.8692 18.7829C32.9388 19.4526 32.4699 20.4603 31.9504 20.9918C31.3829 21.5723 30.592 21.8915 29.7399 21.9506C29.0182 22.0005 27.9995 21.5729 27.478 21.0509C27.0058 20.5782 26.4994 19.7863 26.4994 18.8621ZM21.9495 18.5453C21.9495 20.102 22.237 21.3897 23.025 22.6963C23.4809 23.4527 24.0829 24.1978 24.7808 24.7406C25.2322 25.0917 26.03 25.6651 26.5394 25.8316L29.6644 26.5054C30.8622 26.5054 32.0004 26.2036 32.829 25.8318C33.3827 25.5832 34.4026 24.961 34.8376 24.5155C34.9528 24.3976 34.9935 24.378 35.1134 24.2766C35.2104 24.1947 35.2463 24.112 35.3315 24.0199C35.6656 23.6585 35.8988 23.403 36.1698 22.9582C36.3054 22.7357 36.6172 22.2316 36.694 22.0176L37.419 18.8621C37.5373 17.8179 37.0343 16.2335 36.7062 15.4963C36.5186 15.0749 36.2687 14.6653 36.0107 14.2917C35.6665 13.793 35.0925 13.1863 34.6222 12.7906C34.2794 12.5022 33.8968 12.2245 33.502 12.0109C33.2692 11.8848 33.1222 11.7918 32.8465 11.677C32.372 11.4792 31.9841 11.318 31.4283 11.1956C29.0562 10.6744 26.6803 11.1974 24.8072 12.7327C24.6064 12.8974 24.4762 13.0362 24.2777 13.1927C24.1596 13.2859 24.1411 13.3308 24.0523 13.4423C23.8047 13.7532 23.5285 13.9858 23.2074 14.4977C23.1389 14.6067 23.0945 14.684 23.0252 14.7904C22.8985 14.9852 22.7986 15.2229 22.688 15.4431C22.2985 16.2185 21.9495 17.3982 21.9495 18.5453Z" fill="white"/>
<defs>
<filter id="filter0_d_370_3" x="0" y="0" width="60" height="60" filterUnits="userSpaceOnUse" color-interpolation-filters="sRGB">
<feFlood flood-opacity="0" result="BackgroundImageFix"/>
<feColorMatrix in="SourceAlpha" type="matrix" values="0 0 0 0 0 0 0 0 0 0 0 0 0 0 0 0 0 0 127 0" result="hardAlpha"/>
<feOffset dy="4"/>
<feGaussianBlur stdDeviation="2"/>
<feComposite in2="hardAlpha" operator="out"/>
<feColorMatrix type="matrix" values="0 0 0 0 0 0 0 0 0 0 0 0 0 0 0 0 0 0 0.25 0"/>
<feBlend mode="normal" in2="BackgroundImageFix" result="effect1_dropShadow_370_3"/>
<feBlend mode="normal" in="SourceGraphic" in2="effect1_dropShadow_370_3" result="shape"/>
</filter>
</defs>
</svg>
