<svg width="214" height="81" viewBox="0 0 214 81" fill="none" xmlns="http://www.w3.org/2000/svg">
<path d="M80.5225 31.6973C80.7595 32.1717 81.0758 32.7248 81.3919 33.3574C81.7082 33.9897 82.0244 34.7012 82.4196 35.4917C82.8149 36.2823 83.1312 37.0727 83.4472 37.8634L84.396 40.1558L85.3445 37.8634C85.6607 37.0727 86.056 36.2824 86.3722 35.4917C86.6884 34.7012 87.0837 33.9897 87.3999 33.3574C87.7161 32.7248 88.0323 32.1717 88.2694 31.6973H91.1943C91.3524 32.6459 91.4315 33.6736 91.5896 34.8593C91.7477 36.0451 91.8268 37.2308 91.9059 38.4956C91.9848 39.7606 92.064 41.0254 92.1429 42.2902C92.222 43.5551 92.3011 44.7408 92.3011 45.8475H89.2179C89.2179 44.4245 89.139 42.9226 89.06 41.3415C88.981 39.7606 88.902 38.1006 88.7438 36.4403L87.9533 38.3376C87.6371 39.0491 87.3208 39.7607 87.0837 40.3929C86.8466 41.0254 86.5303 41.7369 86.2142 42.3691C85.8979 43.0016 85.7398 43.5551 85.5026 44.0292H83.2103C83.0521 43.5551 82.8149 43.0016 82.4987 42.3691L81.6291 40.3929C81.313 39.6815 80.9967 38.97 80.7595 38.3376L79.969 36.4403C79.8109 38.1006 79.7318 39.7607 79.6528 41.3415C79.5738 43.0016 79.4948 44.5036 79.4948 45.8475H76.3326C76.4118 44.7408 76.4909 43.5551 76.4909 42.2902C76.4909 41.0254 76.6488 39.7606 76.7279 38.4956C76.807 37.2308 76.886 36.0451 77.0442 34.8593C77.2023 33.6736 77.2814 32.6459 77.4395 31.6973H80.5225Z" fill="#2B2A29"/>
<path d="M102.024 40.4722C102.103 39.6817 101.866 38.8912 101.471 38.2588C100.839 37.3892 99.5737 37.1522 98.6251 37.8635C98.4671 37.9426 98.309 38.1007 98.2299 38.2588C97.8346 38.8912 97.5974 39.6817 97.6765 40.4722C97.6765 41.2629 97.8346 42.0532 98.2299 42.6858C98.8623 43.5552 100.127 43.7924 100.997 43.16C101.155 43.0019 101.313 42.8439 101.471 42.6858C101.866 42.0532 102.024 41.2629 102.024 40.4722H102.024ZM105.107 40.4722C105.107 41.2629 105.028 42.0532 104.712 42.7648C104.475 43.3971 104.159 44.0296 103.684 44.5829C103.21 45.0573 102.657 45.4525 102.024 45.7687C100.601 46.322 99.0995 46.322 97.6764 45.7687C97.0442 45.5315 96.4908 45.1364 96.0164 44.5829C95.5421 44.0296 95.1469 43.4761 94.9097 42.7648C94.6725 42.0532 94.5144 41.2629 94.5144 40.4722C94.5144 39.6817 94.6725 38.8912 94.9097 38.1797C95.1469 37.5474 95.5421 36.915 96.0164 36.3615C96.4908 35.8871 97.0442 35.4921 97.6764 35.1758C99.0204 34.6224 100.601 34.6224 101.945 35.1758C102.578 35.413 103.131 35.8082 103.605 36.3615C104.08 36.915 104.475 37.4683 104.712 38.1797C104.949 38.8912 105.107 39.6817 105.107 40.4722H105.107Z" fill="#2B2A29"/>
<path d="M113.645 37.3102L113.012 37.2311H112.301C111.748 37.152 111.194 37.3102 110.799 37.6264C110.562 37.8636 110.404 38.2587 110.404 38.5749C110.404 38.8121 110.483 39.0493 110.562 39.2074C110.641 39.3656 110.799 39.5237 111.036 39.6026C111.194 39.6817 111.431 39.7609 111.669 39.8398C111.906 39.9189 112.143 39.9189 112.301 39.9189H113.803L113.645 37.3101L113.645 37.3102ZM112.064 42.0532C111.669 42.6856 111.273 43.3181 110.878 44.0294C110.562 44.6619 110.167 45.2943 109.93 45.9267H106.846C107.242 45.0573 107.637 44.1876 108.032 43.4762C108.428 42.8437 108.823 42.2113 109.218 41.579C108.665 41.3418 108.19 40.8674 107.874 40.3931C107.558 39.8398 107.321 39.2865 107.4 38.654C107.321 37.5473 107.795 36.5196 108.665 35.8873C109.692 35.1758 110.957 34.8596 112.301 34.9386H113.408C113.408 34.9386 114.277 35.0177 114.673 35.0967C115.068 35.1758 115.463 35.1758 115.858 35.2547C116.254 35.3339 116.57 35.413 116.807 35.413V45.9267H113.724V42.1323H112.064V42.0532V42.0532Z" fill="#2B2A29"/>
<path d="M124.159 40.472C124.159 39.6815 124.317 38.97 124.554 38.2586C124.791 37.5471 125.186 36.9938 125.661 36.4404C126.135 35.8869 126.767 35.4919 127.4 35.2547C128.111 34.9384 128.981 34.7803 129.771 34.7803C130.325 34.7803 130.799 34.8593 131.352 34.9384C131.827 35.0175 132.301 35.1756 132.775 35.4128L132.143 37.8633C131.827 37.7842 131.511 37.6261 131.194 37.5471C130.799 37.4681 130.404 37.389 130.088 37.389C129.297 37.3099 128.586 37.6261 128.032 38.2586C127.558 38.891 127.321 39.6815 127.321 40.472C127.242 41.2626 127.479 42.053 127.953 42.6855C128.507 43.2387 129.297 43.555 130.167 43.4759C130.562 43.4759 130.957 43.4759 131.352 43.3968C131.748 43.3178 132.143 43.2387 132.538 43.0807L133.012 45.6104C132.617 45.7685 132.143 45.9265 131.669 46.0056C131.115 46.0846 130.483 46.1637 129.93 46.1637C129.06 46.1637 128.19 46.0056 127.4 45.6893C126.767 45.4522 126.135 45.0571 125.661 44.5036C125.186 44.0293 124.87 43.3968 124.633 42.6855C124.238 41.9739 124.159 41.2626 124.159 40.472Z" fill="#2B2A29"/>
<path d="M141.708 39.3653C141.708 39.1282 141.629 38.812 141.55 38.5748C141.47 38.3377 141.391 38.1005 141.233 37.9425C141.075 37.7844 140.838 37.5472 140.601 37.4682C140.285 37.31 140.048 37.31 139.731 37.31C139.415 37.31 139.099 37.3891 138.862 37.4682C138.625 37.5472 138.388 37.7054 138.229 37.9425C138.071 38.1005 137.913 38.3377 137.834 38.5748C137.755 38.812 137.676 39.1282 137.676 39.3653H141.708ZM134.514 40.5511C134.514 39.6816 134.672 38.812 134.988 38.0216C135.225 37.3891 135.621 36.7566 136.174 36.2034C136.648 35.729 137.202 35.3338 137.834 35.0966C138.467 34.8594 139.099 34.7013 139.731 34.7013C141.075 34.6224 142.419 35.1755 143.368 36.1243C144.316 37.31 144.791 38.7329 144.712 40.235V40.7882C144.712 40.7882 144.712 41.1835 144.632 41.3416H137.676C137.755 41.9742 138.071 42.5274 138.546 42.8436C139.178 43.2389 139.89 43.4761 140.601 43.3971C141.154 43.3971 141.708 43.318 142.261 43.2389C142.735 43.1599 143.131 43.0017 143.605 42.8436L144 45.2942C143.763 45.3733 143.605 45.4523 143.368 45.5314C143.131 45.6105 142.814 45.6895 142.498 45.7686C142.182 45.8477 141.787 45.8477 141.391 45.9267C140.996 46.0057 140.601 46.0057 140.206 46.0057C139.336 46.0057 138.467 45.8477 137.676 45.6105C136.965 45.3733 136.411 44.978 135.858 44.4246C135.384 43.9504 134.988 43.318 134.83 42.6855C134.672 42.0532 134.514 41.3417 134.514 40.5511L134.514 40.5511Z" fill="#2B2A29"/>
<path d="M150.167 39.6818C150.167 40.1562 150.088 40.7095 150.088 41.2628L150.009 42.9229C150.009 43.4762 149.93 44.0297 149.93 44.583C149.93 45.1363 149.93 45.5316 149.851 45.9269H146.847C146.847 45.1363 146.926 44.3459 147.005 43.3973C147.084 42.4486 147.163 41.5 147.242 40.5515C147.321 39.6027 147.4 38.5752 147.479 37.7056C147.558 36.836 147.637 35.9664 147.716 35.1758H150.246C150.878 36.1246 151.352 37.1521 151.906 38.1798C152.38 39.2075 152.934 40.3143 153.487 41.5791C154.04 40.2352 154.594 39.0494 155.147 37.9428C155.621 36.994 156.096 36.1246 156.649 35.2548H159.258C159.337 35.9664 159.416 36.8359 159.574 37.7846C159.732 38.7331 159.732 39.6818 159.811 40.6304C159.89 41.5791 159.969 42.6066 159.969 43.4762C159.969 44.3458 160.048 45.2944 160.048 46.006H157.044C157.044 44.9782 156.965 43.8715 156.965 42.8438C156.965 41.8163 156.886 40.7884 156.807 39.7609L154.515 44.6621H152.38L150.167 39.6818Z" fill="#2B2A29"/>
<path d="M167.4 43.7132C167.875 43.7132 168.349 43.6342 168.744 43.397C169.06 43.1599 169.219 42.7646 169.219 42.3694C169.219 42.1322 169.139 41.895 169.06 41.737C168.981 41.5789 168.823 41.4208 168.586 41.3417C168.349 41.2626 168.191 41.1836 167.954 41.1045C167.717 41.0254 167.4 41.0254 167.163 41.0254H166.452L165.899 41.1045V43.5551C166.057 43.5551 166.294 43.6342 166.531 43.6342L167.4 43.7132V43.7132ZM165.899 38.8912C166.136 38.8122 166.373 38.8122 166.61 38.7331C166.926 38.654 167.321 38.654 167.638 38.654C168.27 38.654 168.823 38.7331 169.456 38.8912C170.009 39.0492 170.483 39.2863 170.879 39.6025C171.274 39.9188 171.669 40.3141 171.827 40.7884C172.064 41.3417 172.222 41.895 172.143 42.4485C172.143 43.0018 172.064 43.5551 171.827 44.1086C171.59 44.5828 171.274 44.978 170.879 45.2152C170.404 45.5314 169.93 45.7686 169.377 45.8477C168.744 46.0058 168.112 46.0849 167.479 46.0849C166.689 46.0849 165.819 46.0849 165.029 45.9268C164.238 45.8477 163.448 45.6896 162.736 45.5314V35.0967H165.819L165.898 38.8912L165.899 38.8912Z" fill="#2B2A29"/>
<path d="M180.522 37.3102L179.89 37.2311H179.178C178.625 37.152 178.072 37.3102 177.597 37.6264C177.36 37.8636 177.202 38.2587 177.202 38.5749C177.202 38.8121 177.281 39.0493 177.36 39.2074C177.439 39.3656 177.597 39.5237 177.756 39.6026C177.914 39.6817 178.151 39.7609 178.388 39.8398C178.625 39.9189 178.862 39.9189 179.02 39.9189H180.522V37.3101V37.3102ZM178.941 42.0532C178.546 42.6856 178.151 43.3181 177.756 44.0294C177.439 44.6619 177.044 45.2943 176.807 45.9267H173.645C174.04 45.0573 174.435 44.1876 174.831 43.4762C175.226 42.8437 175.621 42.2113 176.016 41.579C175.463 41.3418 174.989 40.9466 174.672 40.3931C174.277 39.8398 174.119 39.2865 174.198 38.654C174.119 37.5473 174.593 36.5196 175.463 35.8873C176.491 35.1758 177.756 34.8596 179.099 34.9386H180.206C180.206 34.9386 181.076 35.0177 181.471 35.0967C181.866 35.1758 182.261 35.1758 182.657 35.2547C183.052 35.3339 183.368 35.413 183.605 35.413V45.9267H180.522V42.1323H178.941V42.0532L178.941 42.0532Z" fill="#2B2A29"/>
<path d="M193.012 41.0257H213.486V38.4961H193.012V41.0257Z" fill="#2B2A29"/>
<path d="M79.5737 59.445C79.5737 59.9194 79.4946 60.4726 79.4946 61.026C79.4946 61.5793 79.4156 62.1328 79.4156 62.6861C79.4156 63.2394 79.4156 63.7929 79.3365 64.346C79.2575 64.8995 79.3365 65.2948 79.2575 65.69H76.2535C76.2535 64.8995 76.3326 64.109 76.4117 63.1603C76.4907 62.2118 76.5698 61.263 76.6489 60.3145C76.7279 59.3659 76.8069 58.4174 76.8859 57.4686C76.965 56.5201 77.0439 55.7295 77.1231 54.939H79.6528C80.2852 55.8876 80.7594 56.9152 81.3129 57.943C81.7871 58.9706 82.3406 60.0774 82.8938 61.3421C83.4472 59.9984 84.0007 58.8125 84.5538 57.7058C85.0282 56.7572 85.5026 55.8876 86.0559 55.018H88.6647C88.7436 55.7295 88.8227 56.5991 88.9017 57.5477C88.9808 58.4963 89.0599 59.445 89.1389 60.3935C89.218 61.3421 89.2971 62.2908 89.2971 63.2394C89.2971 64.1879 89.3761 65.0576 89.4552 65.7691H86.3721C86.3721 64.7414 86.2931 63.6347 86.2141 62.607C86.135 61.5793 86.135 60.5516 86.0559 59.524L83.7635 64.5042H81.7871L79.5737 59.445V59.445Z" fill="#2B2A29"/>
<path d="M99.2576 60.2352C99.3365 59.4445 99.0995 58.6541 98.7042 58.0218C98.309 57.4683 97.7557 57.2312 97.1232 57.2312C96.4908 57.2312 95.9374 57.5474 95.5421 58.0218C95.1468 58.6541 94.9096 59.4445 94.9888 60.2352C94.9888 61.0257 95.1468 61.8162 95.5421 62.4486C95.9375 62.9229 96.4908 63.2391 97.1232 63.2391C97.7557 63.2391 98.309 63.002 98.7042 62.4486C99.0204 61.8162 99.2576 61.0257 99.2576 60.2352ZM102.34 60.2352C102.34 61.0257 102.261 61.8162 101.945 62.5276C101.708 63.2391 101.392 63.7924 100.918 64.3458C100.443 64.8202 99.8109 65.2153 99.1786 65.5315C97.7557 66.085 96.2537 66.085 94.8307 65.5315C94.1983 65.2944 93.645 64.8993 93.1706 64.3458C92.6962 63.7924 92.301 63.2391 92.064 62.5276C91.8268 61.8162 91.6686 61.0257 91.6686 60.2352C91.6686 59.4445 91.8268 58.6541 92.064 57.9426C92.301 57.3103 92.6962 56.6778 93.1706 56.1245C93.645 55.6501 94.1983 55.2549 94.8307 54.9388C95.4631 54.6225 96.2537 54.5435 96.965 54.5435C97.6766 54.5435 98.467 54.7016 99.0995 54.9388C99.7319 55.1758 100.285 55.571 100.759 56.1245C101.234 56.6778 101.629 57.2312 101.866 57.9426C102.182 58.6541 102.34 59.4445 102.34 60.2352H102.34Z" fill="#2B2A29"/>
<path d="M110.799 57.0729L110.167 56.9939H109.455C108.902 56.9148 108.349 57.0729 107.953 57.3892C107.716 57.6264 107.558 58.0216 107.558 58.3377C107.558 58.7329 107.795 59.2073 108.19 59.3654C108.349 59.4445 108.586 59.5235 108.823 59.6026C109.06 59.6817 109.297 59.6817 109.455 59.6817H110.957L110.799 57.0729ZM109.218 61.816C108.823 62.4484 108.428 63.0808 108.032 63.7133C107.716 64.3455 107.321 64.978 107.084 65.6106H103.922C104.317 64.7408 104.712 63.8713 105.107 63.1598C105.503 62.5274 105.898 61.8951 106.293 61.2627C105.74 61.0255 105.266 60.5511 104.949 60.0769C104.554 59.5235 104.396 58.9701 104.396 58.3377C104.317 57.2309 104.791 56.2034 105.661 55.571C106.688 54.8594 107.953 54.5431 109.297 54.6222H110.404C110.404 54.6222 111.194 54.7014 111.669 54.7803C112.143 54.8594 112.459 54.8594 112.855 54.9385C113.25 55.0175 113.566 55.0966 113.803 55.0966V65.6106H110.72V61.816H109.218L109.218 61.816Z" fill="#2B2A29"/>
<path d="M124.949 58.5752C125.266 58.2589 125.582 57.9427 125.898 57.6267C126.214 57.3104 126.53 56.9942 126.847 56.5988C127.163 56.2037 127.479 55.9665 127.716 55.6503C127.953 55.3341 128.269 55.0178 128.507 54.7808H132.222L131.194 55.8874L129.929 57.2314C129.455 57.7056 129.06 58.1799 128.586 58.5752C128.111 58.9705 127.716 59.4448 127.321 59.7609C127.795 60.1562 128.19 60.5514 128.586 60.9467C129.06 61.421 129.534 61.8954 129.929 62.4487C130.325 63.0021 130.799 63.5553 131.194 64.0297C131.59 64.5041 131.906 65.0575 132.222 65.6107H128.744C128.507 65.2155 128.19 64.8203 127.874 64.425C127.558 64.0297 127.242 63.6345 126.926 63.2393C126.609 62.844 126.214 62.4487 125.898 62.1325C125.582 61.8163 125.266 61.5 124.949 61.263V65.6107H121.866V54.8598H124.949V58.5752V58.5752Z" fill="#2B2A29"/>
<path d="M140.839 60.3141C140.918 59.5235 140.681 58.7331 140.207 58.0217C139.732 57.4684 139.021 57.1521 138.309 57.1521H137.519C137.361 57.1521 137.124 57.1521 136.965 57.2312V62.7647C137.203 62.9229 137.44 63.0019 137.677 63.081C137.993 63.1599 138.309 63.2389 138.626 63.2389C140.207 63.2389 140.918 62.2903 140.839 60.3141L140.839 60.3141ZM144.001 60.2351C144.001 61.0256 143.922 61.737 143.685 62.5276C143.527 63.1601 143.211 63.7923 142.815 64.2667C142.42 64.7411 141.946 65.1361 141.313 65.3733C140.681 65.6896 139.969 65.7687 139.258 65.7687C138.863 65.7687 138.467 65.7687 138.072 65.6105C137.677 65.5315 137.361 65.4524 136.965 65.2943V69.3259H133.882V55.0969C134.12 55.0177 134.436 54.9386 134.831 54.8597C135.147 54.7806 135.543 54.7016 135.938 54.7016C136.333 54.7016 136.728 54.6225 137.124 54.5434C137.519 54.4644 137.914 54.4644 138.309 54.4644C139.1 54.4644 139.89 54.6225 140.681 54.8597C141.313 55.0969 141.946 55.4921 142.42 55.9663C142.894 56.4406 143.29 57.0731 143.527 57.7055C143.922 58.6541 144.08 59.4445 144.001 60.2351V60.2351Z" fill="#2B2A29"/>
<path d="M153.171 59.1285C153.171 58.8913 153.092 58.5752 153.012 58.338C152.933 58.1009 152.854 57.8637 152.696 57.7056C152.538 57.5475 152.301 57.3104 152.064 57.2312C151.748 57.0732 151.511 57.0732 151.194 57.0732C150.878 57.0732 150.562 57.1523 150.325 57.2312C150.088 57.3104 149.851 57.4684 149.692 57.7056C149.534 57.8637 149.376 58.1009 149.297 58.338C149.218 58.5752 149.139 58.8913 149.139 59.1285H153.171ZM145.977 60.3143C145.977 59.4447 146.135 58.5752 146.451 57.7847C146.688 57.1523 147.084 56.5198 147.637 55.9664C148.111 55.4922 148.665 55.0969 149.297 54.8597C149.929 54.6225 150.562 54.4645 151.194 54.4645C152.538 54.3856 153.882 54.9387 154.831 55.8875C155.779 57.0732 156.254 58.4961 156.175 59.9982V60.5514C156.175 60.7095 156.175 60.9467 156.095 61.1048H149.139C149.218 61.7374 149.534 62.2905 150.009 62.6068C150.641 63.0021 151.353 63.1601 152.064 63.1601C152.617 63.1601 153.171 63.081 153.724 63.0021C154.198 62.9231 154.593 62.7649 155.068 62.6068L155.463 65.0574C155.226 65.1365 155.068 65.2155 154.831 65.2946C154.594 65.3737 154.277 65.4527 153.961 65.5318C153.645 65.6108 153.25 65.6108 152.854 65.6898C152.459 65.7687 152.064 65.7687 151.669 65.7687C150.799 65.7687 149.929 65.6108 149.139 65.3737C148.506 65.1365 147.874 64.7411 147.4 64.1878C146.926 63.7136 146.609 63.0811 146.372 62.4487C146.135 61.8163 145.977 61.1048 145.977 60.3143L145.977 60.3143Z" fill="#2B2A29"/>
<path d="M167.874 54.8599V65.6109H164.792V57.3896H161.628V65.6109H158.546V54.8599H167.874Z" fill="#2B2A29"/>
<path d="M177.835 60.2352C177.914 59.4445 177.677 58.6541 177.282 58.0218C176.887 57.4683 176.333 57.2312 175.701 57.2312C175.068 57.2312 174.436 57.4683 174.041 58.0218C173.645 58.6541 173.408 59.4445 173.487 60.2352C173.487 61.0257 173.645 61.8162 174.041 62.4486C174.436 63.002 174.989 63.2391 175.701 63.2391C176.333 63.2391 176.887 63.002 177.282 62.4486C177.677 61.8162 177.835 61.0257 177.835 60.2352ZM180.918 60.2352C180.918 61.0257 180.839 61.8162 180.523 62.5276C180.286 63.2391 179.969 63.7924 179.416 64.3458C178.942 64.8202 178.388 65.2153 177.756 65.5315C177.045 65.8478 176.333 65.9269 175.543 65.9269C174.831 65.9269 174.041 65.7687 173.408 65.5315C172.776 65.2944 172.223 64.8993 171.748 64.3458C171.274 63.7924 170.879 63.2391 170.641 62.5276C170.404 61.8162 170.246 61.0257 170.246 60.2352C170.246 59.4445 170.404 58.6541 170.641 57.9426C170.879 57.3103 171.274 56.6778 171.748 56.1245C172.223 55.6501 172.776 55.2549 173.408 54.9388C174.041 54.6225 174.831 54.5435 175.543 54.5435C176.254 54.5435 177.045 54.7016 177.677 54.9388C178.309 55.1758 178.863 55.571 179.337 56.1245C179.811 56.6778 180.207 57.2312 180.444 57.9426C180.76 58.6541 180.918 59.4445 180.918 60.2352Z" fill="#2B2A29"/>
<path d="M182.894 60.2352C182.894 59.4445 183.052 58.7332 183.289 58.0218C183.527 57.3103 183.922 56.7569 184.396 56.2035C184.87 55.6501 185.503 55.2549 186.135 55.0177C186.847 54.7016 187.716 54.5435 188.507 54.5435C189.06 54.5435 189.534 54.6225 190.088 54.7016C190.562 54.7807 191.037 54.9388 191.511 55.1758L190.878 57.6264C190.562 57.5474 190.246 57.3892 189.93 57.3103C189.534 57.2313 189.139 57.1522 188.823 57.1522C188.032 57.0731 187.321 57.3894 186.768 58.0218C186.293 58.6541 186.056 59.4445 186.056 60.2352C185.977 61.0257 186.214 61.8162 186.689 62.4486C187.242 63.002 188.032 63.3181 188.902 63.2391C189.297 63.2391 189.693 63.2391 190.088 63.16C190.483 63.0811 190.878 63.002 191.274 62.8439L191.669 65.3734C191.274 65.5316 190.799 65.6897 190.325 65.7688C189.772 65.8478 189.139 65.9269 188.586 65.9269C187.716 65.9269 186.847 65.7687 186.056 65.4525C185.424 65.2153 184.791 64.8202 184.317 64.2668C183.843 63.7135 183.527 63.16 183.289 62.4486C182.973 61.7371 182.894 61.0257 182.894 60.2352V60.2352Z" fill="#2B2A29"/>
<path d="M202.657 57.3895H199.178V65.6901H196.096V57.3895H192.617V54.8599H202.578V57.3895H202.657Z" fill="#2B2A29"/>
<path d="M209.218 63.4764C209.692 63.4764 210.166 63.3974 210.562 63.1602C210.878 62.923 211.036 62.5278 211.036 62.1326C211.036 61.8954 210.957 61.6582 210.878 61.5001C210.799 61.3419 210.641 61.1839 210.403 61.1049C210.166 61.0258 209.929 60.9468 209.692 60.8677C209.455 60.7886 209.139 60.7886 208.901 60.7886H208.19L207.637 60.8677V63.3183C207.795 63.3183 208.032 63.3974 208.269 63.3974L209.218 63.4764V63.4764ZM207.637 58.6543C207.874 58.5752 208.111 58.5752 208.427 58.4962C208.743 58.4172 209.139 58.4172 209.455 58.4172C210.087 58.4172 210.641 58.4962 211.273 58.6543C211.826 58.8123 212.301 59.0495 212.696 59.3657C213.091 59.682 213.407 60.0772 213.645 60.5516C213.878 61.0573 213.996 61.6013 214 62.1555V62.2083C213.996 62.763 213.878 63.327 213.645 63.8717C213.407 64.346 213.091 64.7412 212.696 64.9784C212.222 65.2946 211.747 65.5318 211.194 65.6108C210.562 65.7689 209.929 65.8479 209.297 65.8479C208.506 65.8479 207.637 65.8479 206.846 65.6898C206.056 65.6108 205.344 65.4526 204.554 65.2946V54.8599H207.637V58.6543H207.637Z" fill="#2B2A29"/>
<path d="M76.1744 14.408H77.1722V17.8H78.5688L79.5663 15.7051C80.1649 14.5078 80.6638 14.2085 81.3622 14.2085C81.5617 14.2085 81.6615 14.2085 81.861 14.3084L81.6615 15.3059H81.3622C81.0629 15.3059 80.7637 15.4058 80.3645 16.3036L79.3669 18.1991L82.1604 22.4889H81.0629L78.6685 18.5981H77.2718V22.4889H76.2742L76.1744 14.408L76.1744 14.408Z" fill="#2B2A29"/>
<path d="M82.9586 22.5885L83.1581 21.6906H83.4574C83.8564 21.6906 84.1557 21.2916 84.2555 20.4934C84.455 19.1966 84.5548 17.8996 84.7543 16.6025H88.4455V22.5885H87.4479V17.4007H85.5524C85.4526 18.4981 85.253 19.5956 85.1533 20.6929C84.9537 21.99 84.455 22.6882 83.557 22.6882C83.3575 22.6882 83.1581 22.5884 82.9586 22.5884V22.5885Z" fill="#2B2A29"/>
<path d="M90.4408 16.5031H91.4385V18.9971C91.4385 19.5958 91.4385 20.3938 91.3386 21.192C91.5381 20.793 91.8374 20.1943 92.1368 19.7953L94.3316 16.4033H95.429V22.3891H94.4312V19.8951C94.4312 19.2964 94.4312 18.4983 94.5312 17.6005H94.4312C94.2318 18.0993 93.8327 18.5982 93.6333 18.9971L91.4385 22.3891H90.3411L90.4408 16.5031V16.5031Z" fill="#2B2A29"/>
<path d="M97.4242 16.5029H98.4218V18.8973H101.315V16.5029H102.313V22.4888H101.315V19.895H98.4218V22.5885H97.4242V16.5029Z" fill="#2B2A29"/>
<path d="M104.408 16.5029H105.405V18.997C105.405 19.5956 105.306 20.3936 105.306 21.1918C105.505 20.7929 105.904 20.1941 106.104 19.7951L108.199 16.5029H109.296V22.4888H108.298V19.9947C108.298 19.3959 108.298 18.598 108.398 17.7001C108.199 18.1989 107.9 18.6978 107.6 19.0967L105.505 22.4889H104.408V16.5029Z" fill="#2B2A29"/>
<path d="M111.391 16.5031H112.389V18.9971H113.686L114.284 17.7002C114.783 16.6027 115.182 16.4033 115.88 16.4033C115.98 16.4033 116.18 16.5031 116.28 16.5031L116.08 17.5008H115.88C115.581 17.5008 115.282 17.6004 114.983 18.2989L114.484 19.496L116.379 22.6884H115.282L113.686 19.9948H112.389V22.6884H111.391V16.5031L111.391 16.5031Z" fill="#2B2A29"/>
<path d="M120.769 21.0924V19.4961C118.774 19.6957 118.075 20.1945 118.075 20.9926C118.075 21.7908 118.574 21.8905 119.073 21.8905C119.771 21.8905 120.37 21.5912 120.769 21.0924L120.769 21.0924ZM117.078 20.9926C117.078 19.6957 118.175 18.9973 120.769 18.698C120.769 17.8999 120.47 17.2017 119.572 17.2017C118.973 17.2017 118.275 17.4012 117.776 17.8002L117.377 17.1019C118.075 16.603 118.873 16.3037 119.771 16.3037C121.268 16.3037 121.866 17.3013 121.866 18.7979V22.489H121.068L120.969 21.7908C120.47 22.2895 119.672 22.5888 118.973 22.6886C118.075 22.7884 117.277 22.0901 117.178 21.1921C117.078 21.1921 117.078 21.0924 117.078 20.9926L117.078 20.9926Z" fill="#2B2A29"/>
<path fill-rule="evenodd" clip-rule="evenodd" d="M0 19.6259V58.4759C0 61.0658 1.42882 63.5664 3.66171 64.8168L28.4006 79.1065C29.5169 79.7762 30.7896 80.1112 32.0623 80.1112C33.335 80.1112 34.6076 79.7762 35.724 79.1065L60.4629 64.8168C62.6958 63.4773 64.1246 61.0658 64.1246 58.4759V19.6259C64.1246 18.7329 63.6781 17.9291 63.053 17.5717L58.6769 15.0712C58.3194 14.8032 57.873 14.7139 57.4265 14.7139C56.0867 14.7139 54.9259 15.8749 54.9259 17.2146V25.5204L51.9784 23.8236V12.6597C51.9784 11.7666 51.532 10.9628 50.7282 10.5164L45.7268 7.56922C45.3695 7.30123 44.923 7.21181 44.4764 7.21181C43.0476 7.21181 41.9758 8.28349 42.0651 9.62315V17.9291L38.9391 16.1429V4.97905C38.9391 4.08594 38.4927 3.28212 37.6888 2.8357L33.4021 0.334949C33.0001 0.11174 32.5759 0 32.1518 0C31.7274 0 31.3032 0.111739 30.9014 0.334949L26.6144 2.8357C25.8106 3.28212 25.364 4.08594 25.364 4.97905V16.2322L22.2383 18.0184V9.71256C22.2383 9.26601 22.0596 8.81946 21.8809 8.46219C21.1666 7.30123 19.6483 6.85468 18.4873 7.56922L13.4859 10.5164C12.6821 10.9628 12.2356 11.7666 12.2356 12.6597V23.7342L9.2884 25.4312V17.1253C9.2884 16.6787 9.10956 16.2322 8.93099 15.8749C8.21659 14.7139 6.69823 14.2674 5.53727 14.9818L1.25043 17.4825C0.446606 17.9291 5.31864e-05 18.7329 5.31864e-05 19.6259L0 19.6259ZM22.4168 20.6084L26.7036 17.9291C27.2395 17.6612 27.5968 17.1253 27.5968 16.5001V4.97904C27.5968 4.97904 27.5968 4.88989 27.6862 4.88989L32.0623 2.38914H32.1517V23.1091C36.7957 23.1091 40.5467 26.8601 40.5467 31.5042V37.5772H46.6197C51.2641 37.5772 55.0151 41.3285 55.0151 45.9724C55.0151 50.6165 51.2641 54.3677 46.6197 54.3677H41.5292C40.9039 54.3677 40.4574 54.9035 40.4574 55.4393V60.4409C40.4574 65.0848 36.7064 68.8358 32.0623 68.8358V77.7669C31.1692 77.7669 30.3654 77.5883 29.5615 77.0523L4.82262 62.7628C3.30439 61.8697 2.322 60.2622 2.322 58.476V19.6259C2.322 19.6259 2.322 19.5368 2.41128 19.5368L6.69812 17.036H6.78741C6.87669 17.036 6.87669 17.1253 6.87669 17.1253V26.5029C6.87669 26.7708 6.87669 27.0388 7.05539 27.3066C7.50195 28.1999 8.57362 28.4677 9.37731 28.0212L13.575 25.6991C14.1108 25.3418 14.4681 24.806 14.4681 24.1808V12.6598L14.5574 12.5705L19.5589 9.62319H19.7375C19.8268 9.62319 19.8267 9.62319 19.8267 9.71261V19.1794C19.8267 19.4474 19.916 19.7154 20.0947 19.9832C20.3957 20.5252 20.9809 20.8235 21.5767 20.8235C21.8644 20.8235 22.1549 20.7538 22.4168 20.6085L22.4168 20.6084ZM23.7563 31.5041V36.5056C23.7563 37.0415 23.3099 37.5772 22.6847 37.5772H17.594C12.95 37.7559 9.28833 41.5963 9.4669 46.2404C9.64533 50.7059 13.1285 54.1889 17.594 54.3676H23.6672V60.4408C23.6672 65.0848 27.4182 68.8358 32.0623 68.8358V66.5139C28.7577 66.5139 25.9891 63.8344 25.9891 60.4408V54.3676C28.1327 54.2782 30.1869 53.6531 32.0623 52.7601V50.0808C30.2761 51.2418 28.1327 51.867 25.9891 52.0456C26.2571 47.848 28.4899 44.0971 32.0623 41.8643V39.1851C30.6333 39.8994 29.2937 40.8819 28.1327 42.0427C25.4534 44.722 23.8458 48.2946 23.6672 52.0456H17.594C14.2001 52.0456 11.521 49.3664 11.521 45.9724C11.521 42.668 14.2002 39.8994 17.594 39.9886H22.6847C24.5602 39.9886 26.0785 38.4704 26.0785 36.5949V31.5041C26.0785 28.2287 28.7109 25.4799 32.0623 25.4318V25.4312C32.0771 25.4312 32.092 25.4312 32.1067 25.4314C32.1216 25.4312 32.1366 25.4312 32.1517 25.4312V23.109C27.5073 23.109 23.7563 26.86 23.7563 31.5041L23.7563 31.5041ZM32.0623 25.4318V39.1849C33.9378 38.2918 35.9919 37.6668 38.1353 37.5772V31.5042C38.1353 28.1255 35.3917 25.4551 32.1067 25.4314C32.0919 25.4316 32.0772 25.4317 32.0623 25.4318V25.4318ZM40.4574 39.8993C40.2788 43.6503 38.6712 47.2228 35.9918 49.9021C34.8309 51.0631 33.4912 51.9563 32.0623 52.7601V66.5136C35.456 66.5136 38.1353 63.8344 38.1353 60.5301V55.4393C38.1353 53.564 39.6536 52.0456 41.5292 52.0456H46.6197C50.0137 52.0456 52.6929 49.3664 52.6929 45.9724C52.6929 42.5787 50.0137 39.8994 46.6197 39.8994H40.4574V39.8993ZM32.0623 41.9534V50.0808C32.8661 49.5448 33.6698 49.009 34.3843 48.2946C36.6172 46.0617 37.9568 43.1145 38.1353 39.9886C35.9918 40.078 33.9378 40.7924 32.0623 41.9534H32.0623Z" fill="url(#paint0_linear_109_24)"/>
<defs>
<linearGradient id="paint0_linear_109_24" x1="66.6788" y1="74.6722" x2="-2.55426" y2="5.43901" gradientUnits="userSpaceOnUse">
<stop stop-color="#737FE6"/>
<stop offset="1" stop-color="#DD7C7C"/>
</linearGradient>
</defs>
</svg>
