<svg width="18" height="30" viewBox="0 0 18 30" fill="none" xmlns="http://www.w3.org/2000/svg">
<path fill-rule="evenodd" clip-rule="evenodd" d="M0 17.9212C0 19.4429 0.980497 19.9764 2.12318 20.5481C3.61352 21.2938 3.83177 21.2975 5.49943 21.8022C5.39893 21.9523 4.37944 22.9431 4.1641 23.1587C3.69946 23.6238 3.26372 24.0597 2.79909 24.5248C2.34104 24.9833 1.9119 25.4129 1.45386 25.8714L0.553874 27.7031C0.553874 28.0338 0.636714 28.3823 0.739342 28.6263C0.91996 29.055 1.39372 29.6054 1.81898 29.7633C2.07332 29.8578 2.64369 30 2.92771 30C3.33551 30 3.67152 29.8652 3.94875 29.7153C4.42659 29.4568 6.78296 26.9925 7.32909 26.4456L8.66442 25.0892C9.05379 25.3504 12.9775 29.5285 13.3884 29.7068C13.5491 29.7765 14.3759 30 14.5594 30C16.2098 30 17.2972 28.2087 16.5778 26.7519C16.3701 26.331 16.1165 26.0761 15.7884 25.7599L11.8692 21.8022C11.8888 21.7929 13.1622 21.4431 13.6267 21.2647C13.9316 21.1476 14.167 21.0526 14.4419 20.932C14.9771 20.6974 15.485 20.4345 15.9815 20.1366C16.2011 20.0051 16.4906 19.829 16.6847 19.6525C16.7977 19.5499 17.1067 19.1268 17.1546 18.9745L17.3684 18.0004C17.3684 17.3722 17.0598 16.7735 16.7463 16.4449L15.2716 15.7429C14.9498 15.6703 14.2393 15.8369 13.8707 16.0831C13.1079 16.5927 11.629 17.211 10.7519 17.3573C8.77326 17.6872 6.98997 17.6612 5.12618 16.9085C4.64971 16.7162 4.23493 16.5298 3.81471 16.2808L2.41342 15.7429C1.82112 15.6332 1.0486 16.0161 0.661954 16.4055C0.347473 16.7222 0 17.306 0 17.9212ZM5.49944 7.86208C5.49944 6.91965 5.77299 6.19549 6.37906 5.53485C6.575 5.32123 7.0216 4.98858 7.27943 4.89167L8.50612 4.57513C9.19464 4.48755 10.0386 4.78564 10.5587 5.17384C10.9599 5.47348 11.4408 5.998 11.5935 6.47475L11.8692 7.78286C11.9388 8.45264 11.4699 9.46031 10.9504 9.99183C10.3829 10.5723 9.59196 10.8915 8.73989 10.9506C8.01819 11.0005 6.99948 10.5729 6.47799 10.0509C6.00579 9.57819 5.49944 8.78626 5.49944 7.86208ZM0.949469 7.54535C0.949469 9.10202 1.23698 10.3897 2.02503 11.6963C2.48094 12.4527 3.08293 13.1978 3.78077 13.7406C4.23222 14.0917 5.02997 14.6651 5.53942 14.8316L8.66443 15.5054C9.86222 15.5054 11.0004 15.2036 11.829 14.8318C12.3827 14.5832 13.4026 13.961 13.8376 13.5155C13.9528 13.3976 13.9935 13.378 14.1134 13.2766C14.2104 13.1947 14.2463 13.112 14.3315 13.0199C14.6656 12.6585 14.8988 12.403 15.1698 11.9582C15.3054 11.7357 15.6172 11.2316 15.694 11.0176L16.419 7.86208C16.5373 6.81789 16.0343 5.23346 15.7062 4.49629C15.5186 4.07488 15.2687 3.66532 15.0107 3.29169C14.6665 2.793 14.0925 2.18633 13.6222 1.79056C13.2794 1.50218 12.8968 1.22448 12.502 1.01086C12.2692 0.884829 12.1222 0.791809 11.8465 0.677039C11.372 0.479155 10.9841 0.317972 10.4283 0.195628C8.05623 -0.325592 5.68027 0.197376 3.80716 1.73269C3.60636 1.89736 3.47619 2.03621 3.27772 2.19274C3.15957 2.28595 3.14114 2.33081 3.05229 2.44228C2.80474 2.75318 2.52848 2.98583 2.2074 3.49773C2.13891 3.60667 2.09449 3.68396 2.02523 3.79038C1.89854 3.98516 1.79863 4.22286 1.68805 4.44307C1.29849 5.2185 0.949469 6.39824 0.949469 7.54535Z" fill="white"/>
</svg>
