<svg width="46" height="46" viewBox="0 0 46 46" fill="none" xmlns="http://www.w3.org/2000/svg">
<path d="M23 0C29.3512 0 35.1012 2.5746 39.2633 6.73668C43.4254 10.8986 46 16.649 46 23C46 29.3512 43.4254 35.1012 39.2633 39.2633C35.1012 43.4254 29.3511 46 23 46C16.649 46 10.8985 43.4254 6.73668 39.2633C2.5746 35.1012 0 29.3511 0 23C0 16.649 2.5746 10.8985 6.73668 6.73668C10.8986 2.5746 16.649 0 23 0V0ZM38.0079 7.99212C34.1672 4.15144 28.8609 1.77573 23 1.77573C17.1389 1.77573 11.8326 4.15144 7.9921 7.99212C4.15142 11.8326 1.7757 17.139 1.7757 23C1.7757 28.8609 4.15142 34.1673 7.9921 38.0079C11.8326 41.8486 17.139 44.2243 23 44.2243C28.8609 44.2243 34.1673 41.8486 38.0079 38.0079C41.8486 34.1672 44.2243 28.8609 44.2243 23C44.2243 17.1389 41.8486 11.8326 38.0079 7.99212ZM31.9829 15.3125C31.9829 16.7735 31.7706 18.0648 31.3629 19.1945C30.9466 20.3242 30.3605 21.2842 29.6214 22.0827C28.874 22.8727 27.9736 23.5013 26.9287 23.9429C25.8839 24.3933 24.7201 24.6566 23.446 24.7415L23.2761 30.7386C23.2761 30.985 23.1232 31.1718 22.8343 31.2993C22.5456 31.4267 22.0784 31.4861 21.4327 31.4861C21.0845 31.4861 20.7871 31.4776 20.5323 31.4522C20.286 31.4267 20.0821 31.3842 19.9378 31.3247C19.7847 31.2652 19.6828 31.1889 19.615 31.087C19.5469 30.985 19.513 30.8746 19.513 30.7386L19.3685 23.8496C19.3516 23.4672 19.377 23.1529 19.4535 22.9152C19.5299 22.6689 19.6403 22.4734 19.7847 22.312C19.9378 22.1591 20.1246 22.0488 20.3624 21.9893C20.5918 21.9298 20.8551 21.9043 21.1524 21.9043H21.7046C22.7834 21.9043 23.7009 21.7345 24.4653 21.3946C25.2297 21.055 25.85 20.6046 26.3172 20.0355C26.7929 19.4749 27.1411 18.8122 27.3535 18.0478C27.5659 17.2833 27.6763 16.4848 27.6763 15.6609C27.6763 14.7095 27.5403 13.8429 27.2769 13.0614C27.0136 12.2714 26.6144 11.5919 26.0878 11.0142C25.5526 10.4451 24.8815 10.0035 24.083 9.68918C23.2761 9.36636 22.3247 9.21347 21.2289 9.21347C20.2689 9.21347 19.428 9.3154 18.706 9.52777C17.984 9.73162 17.3554 9.96104 16.8287 10.2073C16.2935 10.4536 15.8602 10.683 15.5205 10.8784C15.1807 11.0822 14.9258 11.1756 14.7644 11.1756C14.6456 11.1756 14.5437 11.1502 14.4501 11.1078C14.3567 11.0568 14.2804 10.9549 14.2124 10.8189C14.1444 10.6745 14.0934 10.4875 14.068 10.2413C14.0339 10.0035 14.017 9.70605 14.017 9.34079C14.017 8.94161 14.0424 8.63584 14.0849 8.43199C14.1358 8.21961 14.2463 8.04116 14.4162 7.87974C14.5776 7.72686 14.9004 7.51448 15.3676 7.25967C15.8433 7.00485 16.4125 6.76709 17.0835 6.54619C17.7631 6.33382 18.4936 6.15536 19.3006 6.00247C20.1075 5.84958 20.94 5.78157 21.8065 5.78157C23.5819 5.78157 25.1024 6.02804 26.385 6.53767C27.6593 7.0473 28.7126 7.72686 29.5451 8.5934C30.369 9.45125 30.9891 10.4622 31.3884 11.626C31.7791 12.7896 31.9829 14.0129 31.9829 15.3125L31.9829 15.3125ZM24.1171 37.3815C24.1171 37.9336 24.083 38.3837 24.0067 38.7406C23.9301 39.0974 23.7943 39.3861 23.599 39.6155C23.3949 39.8364 23.1232 39.9893 22.7834 40.0827C22.4437 40.1761 22.0275 40.2186 21.5262 40.2186C20.9995 40.2186 20.5664 40.1761 20.2351 40.0827C19.9037 39.9893 19.6318 39.8364 19.428 39.6155C19.2156 39.3861 19.0798 39.0974 19.0032 38.7406C18.9269 38.3837 18.893 37.9336 18.893 37.3815C18.893 36.8378 18.9269 36.3791 19.0032 36.0053C19.0798 35.6316 19.2156 35.3426 19.428 35.1304C19.6318 34.9264 19.9037 34.7735 20.2351 34.6801C20.5664 34.5952 20.9995 34.5443 21.5262 34.5443C22.0275 34.5443 22.4437 34.5952 22.7834 34.6801C23.1232 34.7735 23.3949 34.9264 23.599 35.1304C23.7943 35.3426 23.9301 35.6316 24.0067 36.0053C24.083 36.3791 24.1171 36.8378 24.1171 37.3815Z" fill="#737FE6"/>
</svg>
