<svg width="42" height="42" viewBox="0 0 42 42" fill="none" xmlns="http://www.w3.org/2000/svg">
<path fill-rule="evenodd" clip-rule="evenodd" d="M40.6845 21.0027H39.3732V10.504C39.3732 9.05128 38.199 7.87711 36.7463 7.87711V5.25034C36.7463 4.36755 36.4807 3.68623 35.9535 3.21496C35.1737 2.52065 34.1581 2.61919 34.0551 2.62779C34.0081 2.63217 33.0824 2.72633 31.5697 2.88493L31.1497 1.72796C30.6526 0.365299 29.1486 -0.337456 27.7857 0.159619L15.8342 4.51332C10.1947 5.10033 4.85525 5.65746 2.55409 5.9146C0.625658 6.12873 0.0428624 8.47286 0 9.82691C0 9.83551 0.00422538 9.83973 0.00422538 9.84833H0V39.3732C0 40.8258 1.1742 42 2.62683 42H36.7506C38.2032 42 39.3774 40.8258 39.3774 39.3732V28.8744H40.6888C41.413 28.8744 42 28.2874 42 27.5632V22.3139C41.9958 21.5896 41.4086 21.0026 40.6844 21.0026L40.6845 21.0027ZM34.1965 3.9392C34.2009 3.9392 34.7365 3.89197 35.0836 4.20056C35.3193 4.41047 35.435 4.76615 35.435 5.25462V7.88154H33.3866L32.0325 4.16194C33.3438 4.02492 34.1494 3.94343 34.1965 3.9392L34.1965 3.9392ZM28.2315 1.398C28.9128 1.14946 29.6671 1.50091 29.9112 2.18224L31.9853 7.88154H27.983C27.443 6.35591 25.9902 5.25462 24.2761 5.25462C22.5621 5.25462 21.1093 6.35169 20.5694 7.88154H10.4218L28.2315 1.398H28.2315ZM26.5388 7.87716H22.0178C22.472 7.0973 23.3077 6.56597 24.2805 6.56597C25.2446 6.56597 26.0845 7.0973 26.5388 7.87716ZM2.69552 7.21726C4.25967 7.04161 7.23781 6.72879 10.7518 6.36028L6.5865 7.87716H2.62264C2.30981 7.87716 2.01841 7.94144 1.73983 8.03998C1.94989 7.61579 2.25412 7.26872 2.69552 7.21726V7.21726ZM38.0576 39.3733C38.0576 40.0975 37.4704 40.6845 36.7462 40.6845H2.62264C1.89844 40.6845 1.31126 40.0975 1.31126 39.3733V10.5041C1.31126 9.77994 1.89843 9.19278 2.62264 9.19278H36.7462C37.4704 9.19278 38.0576 9.77994 38.0576 10.5041V21.0028H27.5585C26.8343 21.0028 26.2473 21.5898 26.2473 22.3141V27.5634C26.2473 28.2876 26.8343 28.8746 27.5585 28.8746H38.0576V39.3734V39.3733ZM40.6844 26.9077C40.6844 27.272 40.393 27.5634 40.0287 27.5634H28.2142C27.8499 27.5634 27.5585 27.272 27.5585 26.9077V22.9696C27.5585 22.6055 27.8499 22.3141 28.2142 22.3141H40.0244C40.3887 22.3141 40.6801 22.6055 40.6801 22.9696V26.9077H40.6844H40.6844ZM28.8699 24.9408C28.8699 25.665 29.4569 26.252 30.1811 26.252C30.9053 26.252 31.4925 25.665 31.4925 24.9408C31.4925 24.2166 30.9053 23.6295 30.1811 23.6295C29.4569 23.6295 28.8699 24.2166 28.8699 24.9408ZM34.7792 13.1266H36.0906C36.4548 13.1266 36.7462 12.8352 36.7462 12.4709C36.7462 12.1067 36.4548 11.8153 36.0906 11.8153H34.7792C34.415 11.8153 34.1237 12.1067 34.1237 12.4709C34.1193 12.8352 34.415 13.1266 34.7792 13.1266ZM30.841 13.1266H32.1524C32.5167 13.1266 32.8081 12.8352 32.8081 12.4709C32.8081 12.1067 32.5167 11.8153 32.1524 11.8153H30.841C30.4769 11.8153 30.1855 12.1067 30.1855 12.4709C30.1855 12.8352 30.4769 13.1266 30.841 13.1266ZM26.903 13.1266H28.2142C28.5785 13.1266 28.8699 12.8352 28.8699 12.4709C28.8699 12.1067 28.5785 11.8153 28.2142 11.8153H26.903C26.5387 11.8153 26.2473 12.1067 26.2473 12.4709C26.2473 12.8352 26.5387 13.1266 26.903 13.1266ZM24.2804 11.8153H22.969C22.6049 11.8153 22.3135 12.1066 22.3135 12.4709C22.3135 12.8352 22.6049 13.1266 22.969 13.1266H24.2804C24.6447 13.1266 24.9361 12.8352 24.9361 12.4709C24.9361 12.1066 24.6403 11.8153 24.2804 11.8153ZM20.3422 11.8153H19.0309C18.6667 11.8153 18.3753 12.1066 18.3753 12.4709C18.3753 12.8352 18.6667 13.1266 19.0309 13.1266H20.3422C20.7065 13.1266 20.9979 12.8352 20.9979 12.4709C20.9979 12.1066 20.7065 11.8153 20.3422 11.8153ZM16.404 11.8153H15.0927C14.7284 11.8153 14.437 12.1066 14.437 12.4709C14.437 12.8352 14.7284 13.1266 15.0927 13.1266H16.404C16.7682 13.1266 17.0597 12.8352 17.0597 12.4709C17.0597 12.1066 16.7682 11.8153 16.404 11.8153ZM12.4659 11.8153H11.1545C10.7902 11.8153 10.4988 12.1066 10.4988 12.4709C10.4988 12.8352 10.7902 13.1266 11.1545 13.1266H12.4659C12.83 13.1266 13.1214 12.8352 13.1214 12.4709C13.1214 12.1066 12.83 11.8153 12.4659 11.8153ZM8.53192 11.8153H7.2207C6.85641 11.8153 6.56501 12.1066 6.56501 12.4709C6.56501 12.8352 6.85641 13.1266 7.2207 13.1266H8.53192C8.89621 13.1266 9.18761 12.8352 9.18761 12.4709C9.18761 12.1066 8.89198 11.8153 8.53192 11.8153ZM4.59371 11.8153H3.28249C2.9182 11.8153 2.6268 12.1066 2.6268 12.4709C2.6268 12.8352 2.9182 13.1266 3.28249 13.1266H4.59371C4.958 13.1266 5.2494 12.8352 5.2494 12.4709C5.2494 12.1066 4.958 11.8153 4.59371 11.8153ZM34.7792 38.0619H36.0906C36.4548 38.0619 36.7462 37.7705 36.7462 37.4063C36.7462 37.0421 36.4548 36.7507 36.0906 36.7507H34.7792C34.415 36.7507 34.1237 37.0421 34.1237 37.4063C34.1193 37.7705 34.415 38.0619 34.7792 38.0619ZM30.841 38.0619H32.1524C32.5167 38.0619 32.8081 37.7705 32.8081 37.4063C32.8081 37.0421 32.5167 36.7507 32.1524 36.7507H30.841C30.4769 36.7507 30.1855 37.0421 30.1855 37.4063C30.1855 37.7705 30.4769 38.0619 30.841 38.0619ZM26.2473 37.4063C26.2473 37.7705 26.5387 38.0619 26.903 38.0619H28.2142C28.5785 38.0619 28.8699 37.7705 28.8699 37.4063C28.8699 37.0421 28.5785 36.7507 28.2142 36.7507H26.903C26.5387 36.7507 26.2473 37.0421 26.2473 37.4063ZM24.2804 36.7507H22.969C22.6048 36.7507 22.3134 37.0421 22.3134 37.4063C22.3134 37.7705 22.6048 38.0619 22.969 38.0619H24.2804C24.6447 38.0619 24.9361 37.7705 24.9361 37.4063C24.9361 37.0421 24.6403 36.7507 24.2804 36.7507ZM20.3422 36.7507H19.0309C18.6666 36.7507 18.3752 37.0421 18.3752 37.4063C18.3752 37.7705 18.6666 38.0619 19.0309 38.0619H20.3422C20.7064 38.0619 20.9978 37.7705 20.9978 37.4063C20.9978 37.0421 20.7064 36.7507 20.3422 36.7507ZM16.404 36.7507H15.0927C14.7284 36.7507 14.437 37.0421 14.437 37.4063C14.437 37.7705 14.7284 38.0619 15.0927 38.0619H16.404C16.7682 38.0619 17.0596 37.7705 17.0596 37.4063C17.0596 37.0421 16.7682 36.7507 16.404 36.7507ZM12.4659 36.7507H11.1545C10.7902 36.7507 10.4988 37.0421 10.4988 37.4063C10.4988 37.7705 10.7902 38.0619 11.1545 38.0619H12.4659C12.83 38.0619 13.1214 37.7705 13.1214 37.4063C13.1214 37.0421 12.83 36.7507 12.4659 36.7507ZM8.53191 36.7507H7.22069C6.8564 36.7507 6.565 37.0421 6.565 37.4063C6.565 37.7705 6.8564 38.0619 7.22069 38.0619H8.53191C8.8962 38.0619 9.1876 37.7705 9.1876 37.4063C9.1876 37.0421 8.89198 36.7507 8.53191 36.7507ZM4.59371 36.7507H3.28248C2.91819 36.7507 2.62679 37.0421 2.62679 37.4063C2.62679 37.7705 2.91819 38.0619 3.28248 38.0619H4.59371C4.95799 38.0619 5.2494 37.7705 5.2494 37.4063C5.2494 37.0421 4.95799 36.7507 4.59371 36.7507Z" fill="#737FE6"/>
</svg>
