<svg width="307" height="330" viewBox="0 0 307 330" fill="none" xmlns="http://www.w3.org/2000/svg">
<circle cx="153.5" cy="176.5" r="152.5" stroke="#DD7C7C" stroke-width="2"/>
<path fill-rule="evenodd" clip-rule="evenodd" d="M220 0H220C220 21.9998 237.55 39.9999 259 39.9999V40.0001C237.55 40.0001 220 58.0002 220 80H220C220 58.0002 202.45 40.0001 181 40.0001V39.9999C202.45 39.9999 220 21.9998 220 0Z" fill="#DD7C7C"/>
<path fill-rule="evenodd" clip-rule="evenodd" d="M263 52C263 62.7249 272 71.4999 283 71.4999C272 71.4999 263 80.2751 263 91C263 80.2751 254 71.5001 243 71.5001C254 71.5001 263 62.7249 263 52Z" fill="#DD7C7C"/>
</svg>
