<svg width="32" height="32" viewBox="0 0 32 32" fill="none" xmlns="http://www.w3.org/2000/svg">
<path fill-rule="evenodd" clip-rule="evenodd" d="M7.56438e-06 31.8783V32H0.124624C0.265452 31.8851 0.515249 31.831 0.694985 31.7733C0.910244 31.7065 1.10986 31.6421 1.31398 31.576L8.56967 29.2714C9.09097 29.1686 13.4597 32.4651 20.4873 30.6078C22.1705 30.1627 23.6374 29.4222 24.898 28.6288C25.4893 28.2574 26.6361 27.3715 27.1185 26.8633C28.3987 25.5177 28.3438 25.764 29.655 23.78C30.7145 22.1778 31.5235 19.879 31.8167 17.9222C31.8538 17.6792 31.9533 16.578 32 16.4709V14.7098C31.9302 14.5506 31.8314 13.3438 31.7815 13.046C31.694 12.5198 31.5879 12.0217 31.4599 11.5338C30.8675 9.28125 29.7367 7.24972 28.2735 5.51479C26.3429 3.22598 23.3998 1.29229 20.329 0.52554C19.8084 0.395707 19.3608 0.30633 18.8044 0.207792C18.5257 0.158311 17.3243 0.0601953 17.1863 0H15.3336C15.2024 0.0616044 14.1427 0.152248 13.898 0.187491C12.6944 0.361168 11.1591 0.781261 10.1057 1.26239C7.17885 2.60091 4.81283 4.42607 3.07524 7.16288C2.30809 8.37086 1.49259 9.99118 1.09773 11.6293C0.144916 15.5718 0.528774 18.8167 2.17614 22.4102C2.86703 23.9156 2.99757 23.0819 2.48994 24.6734C2.35151 25.1089 0.180163 31.6488 7.56438e-06 31.8783ZM10.6632 8.54731C10.2743 8.67461 10.2701 8.69491 10.0021 8.92977C9.88254 9.03437 9.65093 9.30729 9.52039 9.47025C9.21407 9.8544 8.97639 10.3127 8.81019 10.8539C8.43803 12.0689 8.71884 13.31 9.15317 14.3087C9.85406 15.9183 11.5185 17.931 12.7043 19.0926C14.1698 20.5306 15.4731 21.4204 17.8708 22.2586C19.5082 22.8308 20.9772 23.3669 22.7302 22.2735C23.7659 21.6267 24.2171 20.9567 24.268 19.6812C24.2851 19.2572 24.2573 19.1325 23.9648 18.9735C23.3629 18.6441 20.7517 17.2962 20.302 17.4297C20.0942 17.4905 19.1673 18.7258 18.8666 19.0702C18.6775 19.2884 18.522 19.4559 18.1206 19.3492C17.4324 19.1664 15.9844 18.3093 15.4163 17.8613C14.6029 17.2184 14.015 16.6007 13.3783 15.7585C12.5037 14.6021 12.4055 14.4065 13.0104 13.7768C13.1455 13.6341 13.1484 13.6231 13.2466 13.502C13.7647 12.8613 14.0855 12.5949 13.6685 11.6808C13.4059 11.103 12.6524 9.1257 12.3945 8.76933C12.1848 8.47822 12.0582 8.51882 11.6305 8.50204C11.2456 8.4871 11.0179 8.43158 10.6632 8.54731ZM3.95901 28.1002C4.38234 26.9797 4.87024 25.4157 5.28215 24.2002C5.58213 23.3221 5.66037 23.3566 5.37786 22.9425C2.07651 18.1253 2.38847 11.5805 6.093 7.26933C7.26756 5.90262 8.28507 5.08329 9.93596 4.10552C11.3189 3.28619 13.4007 2.65788 15.2884 2.52227C19.7377 2.20311 23.2294 4.03053 25.4898 6.20373C29.8706 10.4181 30.931 17.1259 27.3467 22.7443C26.8365 23.5449 26.4006 23.999 25.7883 24.6632C24.9547 25.568 23.8838 26.3522 22.8257 26.9649C19.4495 28.921 15.2572 29.2376 11.5117 27.8012C11.088 27.6384 10.7283 27.4669 10.3149 27.2605C8.5821 26.3927 9.47513 26.4244 7.91573 26.882C7.47986 27.009 7.02805 27.1598 6.58936 27.2992C6.08342 27.4608 4.32229 28.0916 3.95901 28.1002Z" fill="#DD7C7C"/>
</svg>
