<svg width="60" height="60" viewBox="0 0 60 60" fill="none" xmlns="http://www.w3.org/2000/svg">
<g filter="url(#filter0_d_370_4)">
<rect x="4" width="52" height="52" rx="5" fill="#737FE6"/>
</g>
<path fill-rule="evenodd" clip-rule="evenodd" d="M29.9814 34.8124C30.6581 34.8124 31.7714 34.8297 32.2063 34.4458C32.4145 34.2619 32.5078 34.1059 32.5433 33.7672C32.5788 33.4238 32.5469 31.1832 32.5469 30.7264C32.5464 30.3939 32.5651 30.064 32.6567 29.8214L33.3218 29.4713C33.8127 29.4713 34.1933 29.6597 34.4989 29.8436C35.45 30.4164 36.2491 31.1842 37.0297 31.9614C37.4811 32.4115 37.8845 32.906 38.3264 33.3632C38.5983 33.6446 38.9628 34.1405 39.288 34.3516L40.3767 34.8124H43.9042C44.5917 34.8124 45 34.4808 45 33.8245C45 33.412 44.7371 32.949 44.5808 32.6679C44.4422 32.4191 44.2814 32.1867 44.1178 31.955L43.614 31.2833C43.3331 30.9068 43.0044 30.5747 42.7171 30.2038C42.5769 30.0221 42.1461 29.5568 41.9737 29.371L41.5997 28.9701C41.5275 28.8969 41.4721 28.8434 41.3989 28.7703L40.624 27.9692C40.471 27.8163 39.9156 27.2535 39.8497 27.1408L39.6018 26.5872C39.5179 26.1946 39.9916 25.6436 40.1628 25.3854L40.8473 24.3864C41.0749 24.0451 41.2819 23.7348 41.5097 23.3933C41.6272 23.2174 41.7184 23.0664 41.8361 22.8911L42.4864 21.8587C42.9966 21.0071 43.9378 19.4957 44.2213 18.5718C44.3106 18.2804 44.3854 17.9723 44.3854 17.6677L43.4769 17H39.9492C39.3891 17 38.9919 17.2625 38.7278 17.7024C38.4924 18.0963 38.3368 18.5976 38.1232 19.0207C37.9048 19.4529 37.7104 19.8789 37.4818 20.3026C37.1448 20.9279 36.8019 21.552 36.4163 22.1489C36.0421 22.7287 35.6579 23.31 35.2345 23.8517L34.7996 24.3788C34.649 24.5563 34.5121 24.7262 34.3302 24.8711L33.1349 25.6261C32.7761 25.7295 32.5719 25.1944 32.548 24.877C32.5196 24.5035 32.5468 24.0096 32.5468 23.6229V18.6555C32.5468 18.2385 32.5655 17.8085 32.4476 17.4996L31.6916 17H26.4002C26.1719 17 26.0134 17.093 25.8758 17.1972L25.6255 17.6677C25.5023 18.1588 26.2697 18.7367 26.4549 19.1883L26.908 20.9255V26.08C26.908 26.2843 26.8715 26.5221 26.8192 26.6852L26.4537 27.0144H26.2669C25.7354 27.0144 24.9351 26.0166 24.5943 25.561C24.2935 25.1587 24.0017 24.7584 23.746 24.3256C23.4859 23.8854 23.2055 23.4676 22.9798 23.0087C22.9201 22.8868 22.8547 22.7867 22.7925 22.6615L22.2669 21.6109C21.9133 20.9096 21.5931 20.1681 21.326 19.4271C21.2795 19.2984 21.2348 19.1933 21.1853 19.0603C21.1403 18.9396 21.0922 18.8054 21.0401 18.6714C20.9004 18.3105 20.6754 17.4961 20.3414 17.2861L19.5592 17H15.9779C15.6817 17 15.3624 17.12 15.2151 17.279C14.8222 17.7029 15.0654 18.5053 15.1815 18.9706C15.4121 19.8926 15.8775 21.2261 16.2901 22.0828L17.3322 24.2193C17.3983 24.3419 17.4361 24.437 17.5065 24.5523C17.5742 24.6635 17.6308 24.7793 17.6967 24.8967C18.073 25.5688 18.456 26.2467 18.8854 26.8862C19.3076 27.5145 19.7003 28.1642 20.1546 28.7694L21.0638 29.9707C21.1865 30.1151 21.3023 30.2663 21.4359 30.3996C21.4946 30.4583 21.5152 30.4765 21.5633 30.5397C21.8096 30.8618 22.3025 31.2878 22.626 31.5875L22.8929 31.8282C23.8369 32.7055 25.3018 33.5824 26.4883 34.0569C27.5806 34.4938 28.7359 34.8124 29.9814 34.8124Z" fill="white"/>
<defs>
<filter id="filter0_d_370_4" x="0" y="0" width="60" height="60" filterUnits="userSpaceOnUse" color-interpolation-filters="sRGB">
<feFlood flood-opacity="0" result="BackgroundImageFix"/>
<feColorMatrix in="SourceAlpha" type="matrix" values="0 0 0 0 0 0 0 0 0 0 0 0 0 0 0 0 0 0 127 0" result="hardAlpha"/>
<feOffset dy="4"/>
<feGaussianBlur stdDeviation="2"/>
<feComposite in2="hardAlpha" operator="out"/>
<feColorMatrix type="matrix" values="0 0 0 0 0 0 0 0 0 0 0 0 0 0 0 0 0 0 0.25 0"/>
<feBlend mode="normal" in2="BackgroundImageFix" result="effect1_dropShadow_370_4"/>
<feBlend mode="normal" in="SourceGraphic" in2="effect1_dropShadow_370_4" result="shape"/>
</filter>
</defs>
</svg>
