<svg width="30" height="18" viewBox="0 0 30 18" fill="none" xmlns="http://www.w3.org/2000/svg">
<path fill-rule="evenodd" clip-rule="evenodd" d="M14.9814 17.8124C15.6581 17.8124 16.7714 17.8297 17.2063 17.4458C17.4145 17.2619 17.5078 17.1059 17.5433 16.7672C17.5788 16.4238 17.5469 14.1832 17.5469 13.7264C17.5464 13.3939 17.5651 13.064 17.6567 12.8214L18.3218 12.4713C18.8128 12.4713 19.1933 12.6597 19.4989 12.8436C20.45 13.4164 21.2491 14.1842 22.0297 14.9614C22.4811 15.4115 22.8845 15.906 23.3264 16.3632C23.5983 16.6446 23.9628 17.1405 24.288 17.3516L25.3767 17.8124H28.9042C29.5917 17.8124 30 17.4808 30 16.8245C30 16.412 29.7371 15.949 29.5808 15.6679C29.4422 15.4191 29.2814 15.1867 29.1178 14.955L28.614 14.2833C28.3331 13.9068 28.0044 13.5747 27.7171 13.2038C27.5769 13.0221 27.1461 12.5568 26.9737 12.371L26.5997 11.9701C26.5275 11.8969 26.4721 11.8434 26.3989 11.7703L25.624 10.9692C25.471 10.8163 24.9156 10.2535 24.8497 10.1408L24.6018 9.58722C24.5179 9.19458 24.9916 8.6436 25.1628 8.38539L25.8473 7.38638C26.0749 7.0451 26.2819 6.73481 26.5097 6.39329C26.6272 6.21744 26.7184 6.06644 26.8361 5.89107L27.4864 4.85869C27.9966 4.00714 28.9378 2.49573 29.2213 1.57176C29.3106 1.28041 29.3854 0.972258 29.3854 0.667658L28.4769 0H24.9492C24.3891 0 23.9919 0.262472 23.7278 0.70245C23.4924 1.09628 23.3368 1.59755 23.1232 2.02073C22.9048 2.4529 22.7104 2.87891 22.4818 3.30256C22.1448 3.92785 21.8019 4.55197 21.4163 5.14886C21.0421 5.72871 20.6579 6.30999 20.2345 6.85174L19.7996 7.37881C19.649 7.55632 19.5121 7.72625 19.3302 7.87109L18.1349 8.62609C17.7761 8.72951 17.5719 8.19439 17.548 7.87701C17.5196 7.50354 17.5468 7.0096 17.5468 6.62287V1.65554C17.5468 1.23852 17.5655 0.808482 17.4476 0.499622L16.6916 2.82167e-06H11.4002C11.1719 2.82167e-06 11.0134 0.0930161 10.8758 0.197153L10.6255 0.667661C10.5023 1.15876 11.2697 1.73672 11.4549 2.1883L11.908 3.92549V9.08004C11.908 9.28429 11.8715 9.52214 11.8192 9.68521L11.4537 10.0144H11.2669C10.7354 10.0144 9.93512 9.01661 9.59431 8.56101C9.29353 8.15866 9.00175 7.75844 8.74596 7.32556C8.48592 6.88535 8.2055 6.46762 7.97979 6.00871C7.92011 5.88682 7.85474 5.78671 7.79245 5.66151L7.26691 4.61091C6.91331 3.90964 6.59311 3.16814 6.32596 2.42711C6.27954 2.29836 6.23478 2.19327 6.18528 2.06026C6.14028 1.93956 6.0922 1.80536 6.0401 1.67141C5.90036 1.31048 5.67537 0.496078 5.34142 0.286149L4.55915 8.46502e-06H0.977937C0.681653 8.46502e-06 0.362396 0.120003 0.215085 0.279048C-0.177829 0.702934 0.0654039 1.50526 0.181454 1.97056C0.412134 2.89265 0.87752 4.22608 1.29009 5.08284L2.33218 7.2193C2.39825 7.3419 2.43615 7.43704 2.50649 7.5523C2.57422 7.66354 2.63083 7.77928 2.69667 7.89667C3.073 8.56882 3.45597 9.24666 3.88536 9.88615C4.30764 10.5145 4.70031 11.1642 5.15457 11.7694L6.06379 12.9707C6.18647 13.1151 6.30228 13.2663 6.43586 13.3996C6.4946 13.4583 6.5152 13.4765 6.56328 13.5397C6.80959 13.8618 7.30245 14.2878 7.62597 14.5875L7.89288 14.8282C8.83692 15.7055 10.3018 16.5824 11.4883 17.0569C12.5806 17.4938 13.7359 17.8124 14.9814 17.8124L14.9814 17.8124Z" fill="white"/>
</svg>
